<svg xmlns="http://www.w3.org/2000/svg" xmlns:svg="http://www.w3.org/2000/svg" id="svg2" width="867.565" height="278.417" version="1.1" viewBox="0 0 813.342 261.016"><defs id="defs4"><marker id="marker8861" orient="auto" refX="0" refY="0" style="overflow:visible"><path id="path8859" d="m -2.5,-1 c 0,2.76 -2.24,5 -5,5 -2.76,0 -5,-2.24 -5,-5 0,-2.76 2.24,-5 5,-5 2.76,0 5,2.24 5,5 z" transform="matrix(0.4,0,0,0.4,2.96,0.4)" style="fill:#000;fill-opacity:1;fill-rule:evenodd;stroke:#000;stroke-width:1.00000003pt;stroke-opacity:1"/></marker><marker style="overflow:visible" id="marker6165" orient="auto" refX="0" refY="0"><path style="fill:#000;fill-opacity:1;fill-rule:evenodd;stroke:#000;stroke-width:1.00000003pt;stroke-opacity:1" id="path6163" d="m -2.5,-1 c 0,2.76 -2.24,5 -5,5 -2.76,0 -5,-2.24 -5,-5 0,-2.76 2.24,-5 5,-5 2.76,0 5,2.24 5,5 z" transform="matrix(0.4,0,0,0.4,2.96,0.4)"/></marker><marker style="overflow:visible" id="marker2713" orient="auto" refX="0" refY="0"><path style="fill:#000;fill-opacity:1;fill-rule:evenodd;stroke:#000;stroke-width:1.00000003pt;stroke-opacity:1" id="path2711" d="m -2.5,-1 c 0,2.76 -2.24,5 -5,5 -2.76,0 -5,-2.24 -5,-5 0,-2.76 2.24,-5 5,-5 2.76,0 5,2.24 5,5 z" transform="matrix(0.4,0,0,0.4,2.96,0.4)"/></marker><marker id="DotM" orient="auto" refX="0" refY="0" style="overflow:visible"><path id="path1795" d="m -2.5,-1 c 0,2.76 -2.24,5 -5,5 -2.76,0 -5,-2.24 -5,-5 0,-2.76 2.24,-5 5,-5 2.76,0 5,2.24 5,5 z" transform="matrix(0.4,0,0,0.4,2.96,0.4)" style="fill:#000;fill-opacity:1;fill-rule:evenodd;stroke:#000;stroke-width:1.00000003pt;stroke-opacity:1"/></marker><marker style="overflow:visible" id="marker6389" orient="auto" refX="0" refY="0"><path style="fill:#000;fill-opacity:1;fill-rule:evenodd;stroke:#000;stroke-width:.625;stroke-linejoin:round;stroke-opacity:1" id="path6387" d="M 8.7185878,4.0337352 -2.2072895,0.01601326 8.7185884,-4.0017078 c -1.7454984,2.3720609 -1.7354408,5.6174519 -6e-7,8.035443 z" transform="scale(-0.6)"/></marker><marker id="TriangleOutM" orient="auto" refX="0" refY="0" style="overflow:visible"><path id="path4107" d="M 5.77,0 -2.88,5 V -5 Z" transform="scale(0.4)" style="fill:green;fill-opacity:1;fill-rule:evenodd;stroke:green;stroke-width:1.00000003pt;stroke-opacity:1"/></marker><marker id="marker5333" orient="auto" refX="0" refY="0" style="overflow:visible"><path id="path5335" d="M 5.77,0 -2.88,5 V -5 Z" transform="scale(0.8)" style="fill:#000;fill-opacity:1;fill-rule:evenodd;stroke:#000;stroke-width:1.00000003pt;stroke-opacity:1"/></marker><marker id="TriangleOutL" orient="auto" refX="0" refY="0" style="overflow:visible"><path id="path5049" d="M 5.77,0 -2.88,5 V -5 Z" transform="scale(0.8)" style="fill:#000;fill-opacity:1;fill-rule:evenodd;stroke:#000;stroke-width:1.00000003pt;stroke-opacity:1"/></marker><marker id="DotS" orient="auto" refX="0" refY="0" style="overflow:visible"><path id="path9326" d="m -2.5,-1 c 0,2.76 -2.24,5 -5,5 -2.76,0 -5,-2.24 -5,-5 0,-2.76 2.24,-5 5,-5 2.76,0 5,2.24 5,5 z" transform="matrix(0.2,0,0,0.2,1.48,0.2)" style="fill:#404040;fill-opacity:1;fill-rule:evenodd;stroke:#404040;stroke-width:1.00000003pt;stroke-opacity:1"/></marker><marker id="Arrow2Mstart" orient="auto" refX="0" refY="0" style="overflow:visible"><path id="path9283" d="M 8.7185878,4.0337352 -2.2072895,0.01601326 8.7185884,-4.0017078 c -1.7454984,2.3720609 -1.7354408,5.6174519 -6e-7,8.035443 z" transform="scale(0.6)" style="fill:#000;fill-opacity:1;fill-rule:evenodd;stroke:#000;stroke-width:.625;stroke-linejoin:round;stroke-opacity:1"/></marker><marker id="marker9095" orient="auto" refX="0" refY="0" style="overflow:visible"><path id="path9097" d="M 8.7185878,4.0337352 -2.2072895,0.01601326 8.7185884,-4.0017078 c -1.7454984,2.3720609 -1.7354408,5.6174519 -6e-7,8.035443 z" transform="scale(-0.6)" style="fill:#000;fill-opacity:1;fill-rule:evenodd;stroke:#000;stroke-width:.625;stroke-linejoin:round;stroke-opacity:1"/></marker><marker id="marker8935" orient="auto" refX="0" refY="0" style="overflow:visible"><path id="path8937" d="M 8.7185878,4.0337352 -2.2072895,0.01601326 8.7185884,-4.0017078 c -1.7454984,2.3720609 -1.7354408,5.6174519 -6e-7,8.035443 z" transform="scale(-0.6)" style="fill:#000;fill-opacity:1;fill-rule:evenodd;stroke:#000;stroke-width:.625;stroke-linejoin:round;stroke-opacity:1"/></marker><marker id="marker8781" orient="auto" refX="0" refY="0" style="overflow:visible"><path id="path8783" d="M 8.7185878,4.0337352 -2.2072895,0.01601326 8.7185884,-4.0017078 c -1.7454984,2.3720609 -1.7354408,5.6174519 -6e-7,8.035443 z" transform="scale(-0.6)" style="fill:#000;fill-opacity:1;fill-rule:evenodd;stroke:#000;stroke-width:.625;stroke-linejoin:round;stroke-opacity:1"/></marker><marker id="Arrow2Lend" orient="auto" refX="0" refY="0" style="overflow:visible"><path id="path4700" d="M 8.7185878,4.0337352 -2.2072895,0.01601326 8.7185884,-4.0017078 c -1.7454984,2.3720609 -1.7354408,5.6174519 -6e-7,8.035443 z" transform="matrix(-1.1,0,0,-1.1,-1.1,0)" style="fill:#000;fill-opacity:1;fill-rule:evenodd;stroke:#000;stroke-width:.625;stroke-linejoin:round;stroke-opacity:1"/></marker><marker id="EmptyTriangleOutL" orient="auto" refX="0" refY="0" style="overflow:visible"><path id="path4502" d="M 5.77,0 -2.88,5 V -5 Z" transform="matrix(0.8,0,0,0.8,-4.8,0)" style="fill:#fff;fill-rule:evenodd;stroke:#000;stroke-width:1.00000003pt;stroke-opacity:1"/></marker><marker id="EmptyTriangleOutL-4" orient="auto" refX="0" refY="0" style="overflow:visible"><path id="path4502-7" d="M 5.77,0 -2.88,5 V -5 Z" transform="matrix(0.8,0,0,0.8,-4.8,0)" style="fill:#fff;fill-rule:evenodd;stroke:#000;stroke-width:1.00000003pt;stroke-opacity:1"/></marker><marker id="EmptyTriangleOutL-4-4" orient="auto" refX="0" refY="0" style="overflow:visible"><path id="path4502-7-5" d="M 5.77,0 -2.88,5 V -5 Z" transform="matrix(0.8,0,0,0.8,-4.8,0)" style="fill:#fff;fill-rule:evenodd;stroke:#000;stroke-width:1.00000003pt;stroke-opacity:1"/></marker><marker id="EmptyTriangleOutL-7" orient="auto" refX="0" refY="0" style="overflow:visible"><path id="path4502-5" d="M 5.77,0 -2.88,5 V -5 Z" transform="matrix(0.8,0,0,0.8,-4.8,0)" style="fill:#fff;fill-rule:evenodd;stroke:#000;stroke-width:1.00000003pt;stroke-opacity:1"/></marker><marker id="EmptyTriangleOutL-6" orient="auto" refX="0" refY="0" style="overflow:visible"><path id="path4502-2" d="M 5.77,0 -2.88,5 V -5 Z" transform="matrix(0.8,0,0,0.8,-4.8,0)" style="fill:#fff;fill-rule:evenodd;stroke:#000;stroke-width:1.00000003pt;stroke-opacity:1"/></marker><marker id="EmptyTriangleOutL-78" orient="auto" refX="0" refY="0" style="overflow:visible"><path id="path4502-57" d="M 5.77,0 -2.88,5 V -5 Z" transform="matrix(0.8,0,0,0.8,-4.8,0)" style="fill:#fff;fill-rule:evenodd;stroke:#000;stroke-width:1.00000003pt;stroke-opacity:1"/></marker><marker id="EmptyTriangleOutL-1" orient="auto" refX="0" refY="0" style="overflow:visible"><path id="path4502-8" d="M 5.77,0 -2.88,5 V -5 Z" transform="matrix(0.8,0,0,0.8,-4.8,0)" style="fill:#fff;fill-rule:evenodd;stroke:#000;stroke-width:1.00000003pt;stroke-opacity:1"/></marker><marker id="EmptyTriangleOutL-9" orient="auto" refX="0" refY="0" style="overflow:visible"><path id="path4502-75" d="M 5.77,0 -2.88,5 V -5 Z" transform="matrix(0.8,0,0,0.8,-4.8,0)" style="fill:#fff;fill-rule:evenodd;stroke:#000;stroke-width:1.00000003pt;stroke-opacity:1"/></marker><marker id="EmptyTriangleOutL-78-2" orient="auto" refX="0" refY="0" style="overflow:visible"><path id="path4502-57-6" d="M 5.77,0 -2.88,5 V -5 Z" transform="matrix(0.8,0,0,0.8,-4.8,0)" style="fill:#fff;fill-rule:evenodd;stroke:#000;stroke-width:1.00000003pt;stroke-opacity:1"/></marker><marker id="Arrow2Mend-3" orient="auto" refX="0" refY="0" style="overflow:visible"><path id="path4369-6" d="M 8.7185878,4.0337352 -2.2072895,0.01601326 8.7185884,-4.0017078 c -1.7454984,2.3720609 -1.7354408,5.6174519 -6e-7,8.035443 z" transform="scale(-0.6)" style="fill:#000;fill-opacity:1;fill-rule:evenodd;stroke:#000;stroke-width:.625;stroke-linejoin:round;stroke-opacity:1"/></marker><marker id="Arrow2Mend-3-5" orient="auto" refX="0" refY="0" style="overflow:visible"><path id="path4369-6-3" d="M 8.7185878,4.0337352 -2.2072895,0.01601326 8.7185884,-4.0017078 c -1.7454984,2.3720609 -1.7354408,5.6174519 -6e-7,8.035443 z" transform="scale(-0.6)" style="fill:#000;fill-opacity:1;fill-rule:evenodd;stroke:#000;stroke-width:.625;stroke-linejoin:round;stroke-opacity:1"/></marker><marker id="Arrow2Mend-3-5-6" orient="auto" refX="0" refY="0" style="overflow:visible"><path id="path4369-6-3-2" d="M 8.7185878,4.0337352 -2.2072895,0.01601326 8.7185884,-4.0017078 c -1.7454984,2.3720609 -1.7354408,5.6174519 -6e-7,8.035443 z" transform="scale(-0.6)" style="fill:#000;fill-opacity:1;fill-rule:evenodd;stroke:#000;stroke-width:.625;stroke-linejoin:round;stroke-opacity:1"/></marker><marker id="Arrow2Mend-3-5-6-1" orient="auto" refX="0" refY="0" style="overflow:visible"><path id="path4369-6-3-2-2" d="M 8.7185878,4.0337352 -2.2072895,0.01601326 8.7185884,-4.0017078 c -1.7454984,2.3720609 -1.7354408,5.6174519 -6e-7,8.035443 z" transform="scale(-0.6)" style="fill:#000;fill-opacity:1;fill-rule:evenodd;stroke:#000;stroke-width:.625;stroke-linejoin:round;stroke-opacity:1"/></marker><marker id="Arrow2Mend-3-5-7" orient="auto" refX="0" refY="0" style="overflow:visible"><path id="path4369-6-3-0" d="M 8.7185878,4.0337352 -2.2072895,0.01601326 8.7185884,-4.0017078 c -1.7454984,2.3720609 -1.7354408,5.6174519 -6e-7,8.035443 z" transform="scale(-0.6)" style="fill:#000;fill-opacity:1;fill-rule:evenodd;stroke:#000;stroke-width:.625;stroke-linejoin:round;stroke-opacity:1"/></marker><marker id="Arrow2Mend-3-9" orient="auto" refX="0" refY="0" style="overflow:visible"><path id="path4369-6-36" d="M 8.7185878,4.0337352 -2.2072895,0.01601326 8.7185884,-4.0017078 c -1.7454984,2.3720609 -1.7354408,5.6174519 -6e-7,8.035443 z" transform="scale(-0.6)" style="fill:#000;fill-opacity:1;fill-rule:evenodd;stroke:#000;stroke-width:.625;stroke-linejoin:round;stroke-opacity:1"/></marker><marker id="Arrow2Mend-31" orient="auto" refX="0" refY="0" style="overflow:visible"><path id="path4369-9" d="M 8.7185878,4.0337352 -2.2072895,0.01601326 8.7185884,-4.0017078 c -1.7454984,2.3720609 -1.7354408,5.6174519 -6e-7,8.035443 z" transform="scale(-0.6)" style="fill:#000;fill-opacity:1;fill-rule:evenodd;stroke:#000;stroke-width:.625;stroke-linejoin:round;stroke-opacity:1"/></marker><marker id="Arrow2Mend-3-5-7-5" orient="auto" refX="0" refY="0" style="overflow:visible"><path id="path4369-6-3-0-4" d="M 8.7185878,4.0337352 -2.2072895,0.01601326 8.7185884,-4.0017078 c -1.7454984,2.3720609 -1.7354408,5.6174519 -6e-7,8.035443 z" transform="scale(-0.6)" style="fill:#000;fill-opacity:1;fill-rule:evenodd;stroke:#000;stroke-width:.625;stroke-linejoin:round;stroke-opacity:1"/></marker><marker id="Arrow2Mend-3-9-6" orient="auto" refX="0" refY="0" style="overflow:visible"><path id="path4369-6-36-5" d="M 8.7185878,4.0337352 -2.2072895,0.01601326 8.7185884,-4.0017078 c -1.7454984,2.3720609 -1.7354408,5.6174519 -6e-7,8.035443 z" transform="scale(-0.6)" style="fill:#000;fill-opacity:1;fill-rule:evenodd;stroke:#000;stroke-width:.625;stroke-linejoin:round;stroke-opacity:1"/></marker><marker id="Arrow2Mend-3-5-7-3" orient="auto" refX="0" refY="0" style="overflow:visible"><path id="path4369-6-3-0-5" d="M 8.7185878,4.0337352 -2.2072895,0.01601326 8.7185884,-4.0017078 c -1.7454984,2.3720609 -1.7354408,5.6174519 -6e-7,8.035443 z" transform="scale(-0.6)" style="fill:#000;fill-opacity:1;fill-rule:evenodd;stroke:#000;stroke-width:.625;stroke-linejoin:round;stroke-opacity:1"/></marker><marker id="marker9095-3" orient="auto" refX="0" refY="0" style="overflow:visible"><path id="path9097-1" d="M 8.7185878,4.0337352 -2.2072895,0.01601326 8.7185884,-4.0017078 c -1.7454984,2.3720609 -1.7354408,5.6174519 -6e-7,8.035443 z" transform="scale(-0.6)" style="fill:#000;fill-opacity:1;fill-rule:evenodd;stroke:#000;stroke-width:.625;stroke-linejoin:round;stroke-opacity:1"/></marker><marker id="marker9095-3-7" orient="auto" refX="0" refY="0" style="overflow:visible"><path id="path9097-1-8" d="M 8.7185878,4.0337352 -2.2072895,0.01601326 8.7185884,-4.0017078 c -1.7454984,2.3720609 -1.7354408,5.6174519 -6e-7,8.035443 z" transform="scale(-0.6)" style="fill:#000;fill-opacity:1;fill-rule:evenodd;stroke:#000;stroke-width:.625;stroke-linejoin:round;stroke-opacity:1"/></marker><marker id="marker9095-1-5" orient="auto" refX="0" refY="0" style="overflow:visible"><path id="path9097-2-0" d="M 8.7185878,4.0337352 -2.2072895,0.01601326 8.7185884,-4.0017078 c -1.7454984,2.3720609 -1.7354408,5.6174519 -6e-7,8.035443 z" transform="scale(-0.6)" style="fill:#000;fill-opacity:1;fill-rule:evenodd;stroke:#000;stroke-width:.625;stroke-linejoin:round;stroke-opacity:1"/></marker><marker id="marker9095-1-5-6" orient="auto" refX="0" refY="0" style="overflow:visible"><path id="path9097-2-0-1" d="M 8.7185878,4.0337352 -2.2072895,0.01601326 8.7185884,-4.0017078 c -1.7454984,2.3720609 -1.7354408,5.6174519 -6e-7,8.035443 z" transform="scale(-0.6)" style="fill:#000;fill-opacity:1;fill-rule:evenodd;stroke:#000;stroke-width:.625;stroke-linejoin:round;stroke-opacity:1"/></marker><marker id="marker9095-1-5-6-6" orient="auto" refX="0" refY="0" style="overflow:visible"><path id="path9097-2-0-1-3" d="M 8.7185878,4.0337352 -2.2072895,0.01601326 8.7185884,-4.0017078 c -1.7454984,2.3720609 -1.7354408,5.6174519 -6e-7,8.035443 z" transform="scale(-0.6)" style="fill:#000;fill-opacity:1;fill-rule:evenodd;stroke:#000;stroke-width:.625;stroke-linejoin:round;stroke-opacity:1"/></marker><marker id="marker9095-1-5-2" orient="auto" refX="0" refY="0" style="overflow:visible"><path id="path9097-2-0-0" d="M 8.7185878,4.0337352 -2.2072895,0.01601326 8.7185884,-4.0017078 c -1.7454984,2.3720609 -1.7354408,5.6174519 -6e-7,8.035443 z" transform="scale(-0.6)" style="fill:#000;fill-opacity:1;fill-rule:evenodd;stroke:#000;stroke-width:.625;stroke-linejoin:round;stroke-opacity:1"/></marker><marker id="marker9095-1-5-6-5" orient="auto" refX="0" refY="0" style="overflow:visible"><path id="path9097-2-0-1-5" d="M 8.7185878,4.0337352 -2.2072895,0.01601326 8.7185884,-4.0017078 c -1.7454984,2.3720609 -1.7354408,5.6174519 -6e-7,8.035443 z" transform="scale(-0.6)" style="fill:#000;fill-opacity:1;fill-rule:evenodd;stroke:#000;stroke-width:.625;stroke-linejoin:round;stroke-opacity:1"/></marker><marker id="marker9095-1-5-4" orient="auto" refX="0" refY="0" style="overflow:visible"><path id="path9097-2-0-7" d="M 8.7185878,4.0337352 -2.2072895,0.01601326 8.7185884,-4.0017078 c -1.7454984,2.3720609 -1.7354408,5.6174519 -6e-7,8.035443 z" transform="scale(-0.6)" style="fill:#000;fill-opacity:1;fill-rule:evenodd;stroke:#000;stroke-width:.625;stroke-linejoin:round;stroke-opacity:1"/></marker><marker id="marker9095-1-5-6-5-9" orient="auto" refX="0" refY="0" style="overflow:visible"><path id="path9097-2-0-1-5-3" d="M 8.7185878,4.0337352 -2.2072895,0.01601326 8.7185884,-4.0017078 c -1.7454984,2.3720609 -1.7354408,5.6174519 -6e-7,8.035443 z" transform="scale(-0.6)" style="fill:#000;fill-opacity:1;fill-rule:evenodd;stroke:#000;stroke-width:.625;stroke-linejoin:round;stroke-opacity:1"/></marker><marker id="marker9095-1-5-6-5-4" orient="auto" refX="0" refY="0" style="overflow:visible"><path id="path9097-2-0-1-5-5" d="M 8.7185878,4.0337352 -2.2072895,0.01601326 8.7185884,-4.0017078 c -1.7454984,2.3720609 -1.7354408,5.6174519 -6e-7,8.035443 z" transform="scale(-0.6)" style="fill:#000;fill-opacity:1;fill-rule:evenodd;stroke:#000;stroke-width:.625;stroke-linejoin:round;stroke-opacity:1"/></marker><marker id="marker9095-1-5-6-5-4-4" orient="auto" refX="0" refY="0" style="overflow:visible"><path id="path9097-2-0-1-5-5-3" d="M 8.7185878,4.0337352 -2.2072895,0.01601326 8.7185884,-4.0017078 c -1.7454984,2.3720609 -1.7354408,5.6174519 -6e-7,8.035443 z" transform="scale(-0.6)" style="fill:#000;fill-opacity:1;fill-rule:evenodd;stroke:#000;stroke-width:.625;stroke-linejoin:round;stroke-opacity:1"/></marker><marker id="marker9095-1-5-6-5-4-4-9" orient="auto" refX="0" refY="0" style="overflow:visible"><path id="path9097-2-0-1-5-5-3-2" d="M 8.7185878,4.0337352 -2.2072895,0.01601326 8.7185884,-4.0017078 c -1.7454984,2.3720609 -1.7354408,5.6174519 -6e-7,8.035443 z" transform="scale(-0.6)" style="fill:#000;fill-opacity:1;fill-rule:evenodd;stroke:#000;stroke-width:.625;stroke-linejoin:round;stroke-opacity:1"/></marker><marker id="marker9095-1-5-6-5-4-4-6" orient="auto" refX="0" refY="0" style="overflow:visible"><path id="path9097-2-0-1-5-5-3-8" d="M 8.7185878,4.0337352 -2.2072895,0.01601326 8.7185884,-4.0017078 c -1.7454984,2.3720609 -1.7354408,5.6174519 -6e-7,8.035443 z" transform="scale(-0.6)" style="fill:#000;fill-opacity:1;fill-rule:evenodd;stroke:#000;stroke-width:.625;stroke-linejoin:round;stroke-opacity:1"/></marker><marker id="marker9095-1-5-6-5-4-4-2" orient="auto" refX="0" refY="0" style="overflow:visible"><path id="path9097-2-0-1-5-5-3-7" d="M 8.7185878,4.0337352 -2.2072895,0.01601326 8.7185884,-4.0017078 c -1.7454984,2.3720609 -1.7354408,5.6174519 -6e-7,8.035443 z" transform="scale(-0.6)" style="fill:#000;fill-opacity:1;fill-rule:evenodd;stroke:#000;stroke-width:.625;stroke-linejoin:round;stroke-opacity:1"/></marker><marker id="marker9095-1-5-3" orient="auto" refX="0" refY="0" style="overflow:visible"><path id="path9097-2-0-6" d="M 8.7185878,4.0337352 -2.2072895,0.01601326 8.7185884,-4.0017078 c -1.7454984,2.3720609 -1.7354408,5.6174519 -6e-7,8.035443 z" transform="scale(-0.6)" style="fill:#000;fill-opacity:1;fill-rule:evenodd;stroke:#000;stroke-width:.625;stroke-linejoin:round;stroke-opacity:1"/></marker><marker id="marker9095-1-5-6-5-4-4-6-5" orient="auto" refX="0" refY="0" style="overflow:visible"><path id="path9097-2-0-1-5-5-3-8-3" d="M 8.7185878,4.0337352 -2.2072895,0.01601326 8.7185884,-4.0017078 c -1.7454984,2.3720609 -1.7354408,5.6174519 -6e-7,8.035443 z" transform="scale(-0.6)" style="fill:#000;fill-opacity:1;fill-rule:evenodd;stroke:#000;stroke-width:.625;stroke-linejoin:round;stroke-opacity:1"/></marker><marker id="marker9095-1-5-27" orient="auto" refX="0" refY="0" style="overflow:visible"><path id="path9097-2-0-09" d="M 8.7185878,4.0337352 -2.2072895,0.01601326 8.7185884,-4.0017078 c -1.7454984,2.3720609 -1.7354408,5.6174519 -6e-7,8.035443 z" transform="scale(-0.6)" style="fill:#000;fill-opacity:1;fill-rule:evenodd;stroke:#000;stroke-width:.625;stroke-linejoin:round;stroke-opacity:1"/></marker><marker id="marker9095-1-5-27-6" orient="auto" refX="0" refY="0" style="overflow:visible"><path id="path9097-2-0-09-2" d="M 8.7185878,4.0337352 -2.2072895,0.01601326 8.7185884,-4.0017078 c -1.7454984,2.3720609 -1.7354408,5.6174519 -6e-7,8.035443 z" transform="scale(-0.6)" style="fill:#000;fill-opacity:1;fill-rule:evenodd;stroke:#000;stroke-width:.625;stroke-linejoin:round;stroke-opacity:1"/></marker><marker id="marker9095-1-5-27-0" orient="auto" refX="0" refY="0" style="overflow:visible"><path id="path9097-2-0-09-23" d="M 8.7185878,4.0337352 -2.2072895,0.01601326 8.7185884,-4.0017078 c -1.7454984,2.3720609 -1.7354408,5.6174519 -6e-7,8.035443 z" transform="scale(-0.6)" style="fill:#000;fill-opacity:1;fill-rule:evenodd;stroke:#000;stroke-width:.625;stroke-linejoin:round;stroke-opacity:1"/></marker><marker id="marker9095-1-9" orient="auto" refX="0" refY="0" style="overflow:visible"><path id="path9097-2-7" d="M 8.7185878,4.0337352 -2.2072895,0.01601326 8.7185884,-4.0017078 c -1.7454984,2.3720609 -1.7354408,5.6174519 -6e-7,8.035443 z" transform="scale(-0.6)" style="fill:#000;fill-opacity:1;fill-rule:evenodd;stroke:#000;stroke-width:.625;stroke-linejoin:round;stroke-opacity:1"/></marker><marker id="marker9095-1-5-4-6" orient="auto" refX="0" refY="0" style="overflow:visible"><path id="path9097-2-0-7-7" d="M 8.7185878,4.0337352 -2.2072895,0.01601326 8.7185884,-4.0017078 c -1.7454984,2.3720609 -1.7354408,5.6174519 -6e-7,8.035443 z" transform="scale(-0.6)" style="fill:#000;fill-opacity:1;fill-rule:evenodd;stroke:#000;stroke-width:.625;stroke-linejoin:round;stroke-opacity:1"/></marker><marker id="marker9095-1-5-4-6-3" orient="auto" refX="0" refY="0" style="overflow:visible"><path id="path9097-2-0-7-7-5" d="M 8.7185878,4.0337352 -2.2072895,0.01601326 8.7185884,-4.0017078 c -1.7454984,2.3720609 -1.7354408,5.6174519 -6e-7,8.035443 z" transform="scale(-0.6)" style="fill:#000;fill-opacity:1;fill-rule:evenodd;stroke:#000;stroke-width:.625;stroke-linejoin:round;stroke-opacity:1"/></marker><marker id="marker9095-1-5-4-6-2" orient="auto" refX="0" refY="0" style="overflow:visible"><path id="path9097-2-0-7-7-9" d="M 8.7185878,4.0337352 -2.2072895,0.01601326 8.7185884,-4.0017078 c -1.7454984,2.3720609 -1.7354408,5.6174519 -6e-7,8.035443 z" transform="scale(-0.6)" style="fill:#000;fill-opacity:1;fill-rule:evenodd;stroke:#000;stroke-width:.625;stroke-linejoin:round;stroke-opacity:1"/></marker><marker id="TriangleOutM-2" orient="auto" refX="0" refY="0" style="overflow:visible"><path id="path4107-7" d="M 5.77,0 -2.88,5 V -5 Z" transform="scale(0.4)" style="fill:green;fill-opacity:1;fill-rule:evenodd;stroke:green;stroke-width:1.00000003pt;stroke-opacity:1"/></marker><marker id="Arrow2Mstart-9" orient="auto" refX="0" refY="0" style="overflow:visible"><path id="path9283-3" d="M 8.7185878,4.0337352 -2.2072895,0.01601326 8.7185884,-4.0017078 c -1.7454984,2.3720609 -1.7354408,5.6174519 -6e-7,8.035443 z" transform="scale(0.6)" style="fill:#000;fill-opacity:1;fill-rule:evenodd;stroke:#000;stroke-width:.625;stroke-linejoin:round;stroke-opacity:1"/></marker><marker id="marker9095-1-5-4-6-6" orient="auto" refX="0" refY="0" style="overflow:visible"><path id="path9097-2-0-7-7-0" d="M 8.7185878,4.0337352 -2.2072895,0.01601326 8.7185884,-4.0017078 c -1.7454984,2.3720609 -1.7354408,5.6174519 -6e-7,8.035443 z" transform="scale(-0.6)" style="fill:#000;fill-opacity:1;fill-rule:evenodd;stroke:#000;stroke-width:.625;stroke-linejoin:round;stroke-opacity:1"/></marker><marker id="DotM-3" orient="auto" refX="0" refY="0" style="overflow:visible"><path id="path1795-7" d="m -2.5,-1 c 0,2.76 -2.24,5 -5,5 -2.76,0 -5,-2.24 -5,-5 0,-2.76 2.24,-5 5,-5 2.76,0 5,2.24 5,5 z" transform="matrix(0.4,0,0,0.4,2.96,0.4)" style="fill:#000;fill-opacity:1;fill-rule:evenodd;stroke:#000;stroke-width:1.00000003pt;stroke-opacity:1"/></marker><marker style="overflow:visible" id="marker2713-9" orient="auto" refX="0" refY="0"><path style="fill:#000;fill-opacity:1;fill-rule:evenodd;stroke:#000;stroke-width:1.00000003pt;stroke-opacity:1" id="path2711-2" d="m -2.5,-1 c 0,2.76 -2.24,5 -5,5 -2.76,0 -5,-2.24 -5,-5 0,-2.76 2.24,-5 5,-5 2.76,0 5,2.24 5,5 z" transform="matrix(0.4,0,0,0.4,2.96,0.4)"/></marker><marker id="DotM-2" orient="auto" refX="0" refY="0" style="overflow:visible"><path id="path1795-8" d="m -2.5,-1 c 0,2.76 -2.24,5 -5,5 -2.76,0 -5,-2.24 -5,-5 0,-2.76 2.24,-5 5,-5 2.76,0 5,2.24 5,5 z" transform="matrix(0.4,0,0,0.4,2.96,0.4)" style="fill:#000;fill-opacity:1;fill-rule:evenodd;stroke:#000;stroke-width:1.00000003pt;stroke-opacity:1"/></marker><marker style="overflow:visible" id="marker2713-3" orient="auto" refX="0" refY="0"><path style="fill:#000;fill-opacity:1;fill-rule:evenodd;stroke:#000;stroke-width:1.00000003pt;stroke-opacity:1" id="path2711-6" d="m -2.5,-1 c 0,2.76 -2.24,5 -5,5 -2.76,0 -5,-2.24 -5,-5 0,-2.76 2.24,-5 5,-5 2.76,0 5,2.24 5,5 z" transform="matrix(0.4,0,0,0.4,2.96,0.4)"/></marker><marker id="DotM-1" orient="auto" refX="0" refY="0" style="overflow:visible"><path id="path1795-2" d="m -2.5,-1 c 0,2.76 -2.24,5 -5,5 -2.76,0 -5,-2.24 -5,-5 0,-2.76 2.24,-5 5,-5 2.76,0 5,2.24 5,5 z" transform="matrix(0.4,0,0,0.4,2.96,0.4)" style="fill:#000;fill-opacity:1;fill-rule:evenodd;stroke:#000;stroke-width:1.00000003pt;stroke-opacity:1"/></marker><marker style="overflow:visible" id="marker2713-94" orient="auto" refX="0" refY="0"><path style="fill:#000;fill-opacity:1;fill-rule:evenodd;stroke:#000;stroke-width:1.00000003pt;stroke-opacity:1" id="path2711-7" d="m -2.5,-1 c 0,2.76 -2.24,5 -5,5 -2.76,0 -5,-2.24 -5,-5 0,-2.76 2.24,-5 5,-5 2.76,0 5,2.24 5,5 z" transform="matrix(0.4,0,0,0.4,2.96,0.4)"/></marker><marker id="DotM-8" orient="auto" refX="0" refY="0" style="overflow:visible"><path id="path1795-4" d="m -2.5,-1 c 0,2.76 -2.24,5 -5,5 -2.76,0 -5,-2.24 -5,-5 0,-2.76 2.24,-5 5,-5 2.76,0 5,2.24 5,5 z" transform="matrix(0.4,0,0,0.4,2.96,0.4)" style="fill:#000;fill-opacity:1;fill-rule:evenodd;stroke:#000;stroke-width:1.00000003pt;stroke-opacity:1"/></marker><marker style="overflow:visible" id="marker2713-36" orient="auto" refX="0" refY="0"><path style="fill:#000;fill-opacity:1;fill-rule:evenodd;stroke:#000;stroke-width:1.00000003pt;stroke-opacity:1" id="path2711-1" d="m -2.5,-1 c 0,2.76 -2.24,5 -5,5 -2.76,0 -5,-2.24 -5,-5 0,-2.76 2.24,-5 5,-5 2.76,0 5,2.24 5,5 z" transform="matrix(0.4,0,0,0.4,2.96,0.4)"/></marker><marker style="overflow:visible" id="marker6165-5" orient="auto" refX="0" refY="0"><path style="fill:#000;fill-opacity:1;fill-rule:evenodd;stroke:#000;stroke-width:1.00000003pt;stroke-opacity:1" id="path6163-5" d="m -2.5,-1 c 0,2.76 -2.24,5 -5,5 -2.76,0 -5,-2.24 -5,-5 0,-2.76 2.24,-5 5,-5 2.76,0 5,2.24 5,5 z" transform="matrix(0.4,0,0,0.4,2.96,0.4)"/></marker></defs><metadata id="metadata7"/><g id="layer1" transform="translate(-93.377215,-444.09395)"><rect style="opacity:1;fill:#ffb9b9;fill-opacity:1;stroke:#f00000;stroke-width:2.8125;stroke-linecap:round;stroke-linejoin:round;stroke-miterlimit:4;stroke-dasharray:none;stroke-opacity:1" id="rect4424-3-2-9-7" width="112.5" height="113.75" x="112.5" y="471.112" rx="0" ry="0"/><text style="font-style:normal;font-weight:400;line-height:0%;font-family:sans-serif;letter-spacing:0;word-spacing:0;fill:#000;fill-opacity:1;stroke:none;stroke-width:1px;stroke-linecap:butt;stroke-linejoin:miter;stroke-opacity:1" id="text4349" x="167.535" y="521.463" xml:space="preserve"><tspan style="font-size:25px;line-height:1.25;font-family:sans-serif;text-align:center;text-anchor:middle" id="tspan1273" x="167.535" y="521.463">I2C</tspan><tspan style="font-size:25px;line-height:1.25;font-family:sans-serif;text-align:center;text-anchor:middle" id="tspan1285" x="167.535" y="552.713">Master</tspan></text><rect style="color:#000;clip-rule:nonzero;display:inline;overflow:visible;visibility:visible;opacity:1;isolation:auto;mix-blend-mode:normal;color-interpolation:sRGB;color-interpolation-filters:linearRGB;solid-color:#000;solid-opacity:1;fill:#b9ffb9;fill-opacity:1;fill-rule:nonzero;stroke:#006400;stroke-width:2.8125;stroke-linecap:round;stroke-linejoin:round;stroke-miterlimit:4;stroke-dasharray:none;stroke-dashoffset:0;stroke-opacity:1;color-rendering:auto;image-rendering:auto;shape-rendering:auto;text-rendering:auto;enable-background:accumulate" id="rect4424-3-2-9-7-3-3-5-3" width="112.5" height="112.5" x="262.5" y="471.112" rx="0" ry="0"/><path style="fill:none;fill-rule:evenodd;stroke:#000;stroke-width:1.99968767;stroke-linecap:butt;stroke-linejoin:miter;stroke-miterlimit:4;stroke-dasharray:none;stroke-opacity:1" id="path4655-9-3-65-5-6" d="m 112.50002,639.86223 c 712.50002,0 712.50002,0 712.50002,0"/><text style="font-style:normal;font-weight:400;font-size:12px;line-height:0%;font-family:sans-serif;letter-spacing:0;word-spacing:0;fill:#000;fill-opacity:1;stroke:none;stroke-width:1px;stroke-linecap:butt;stroke-linejoin:miter;stroke-opacity:1" id="text4349-26" x="318.591" y="520.838" xml:space="preserve"><tspan style="font-size:25.00000191px;line-height:1.25;font-family:sans-serif;text-align:center;text-anchor:middle;stroke-width:1px" id="tspan1273-8" x="318.591" y="520.838">I2C</tspan><tspan style="font-size:25.00000191px;line-height:1.25;font-family:sans-serif;text-align:center;text-anchor:middle;stroke-width:1px" id="tspan1287" x="318.591" y="552.088">Slave</tspan></text><path style="fill:none;fill-rule:evenodd;stroke:#000;stroke-width:1.99968767;stroke-linecap:butt;stroke-linejoin:miter;stroke-miterlimit:4;stroke-dasharray:none;stroke-opacity:1" id="path4655-9-3-65-5-6-2" d="m 112.49995,677.36223 c 712.50005,0 712.50005,0 712.50005,0"/><text style="font-style:normal;font-weight:400;font-size:12px;line-height:0%;font-family:sans-serif;letter-spacing:0;word-spacing:0;fill:#000;fill-opacity:1;stroke:none;stroke-width:1px;stroke-linecap:butt;stroke-linejoin:miter;stroke-opacity:1" id="text4349-7" x="861.073" y="687.039" xml:space="preserve"><tspan style="font-size:25.00000191px;line-height:1.25;font-family:sans-serif;text-align:center;writing-mode:lr-tb;direction:ltr;text-anchor:middle;stroke-width:1px" id="tspan1285-9" x="861.073" y="687.039">SCL</tspan></text><flowRoot id="flowRoot1627" xml:space="preserve" style="font-style:normal;font-weight:400;font-size:40px;line-height:125%;font-family:Sans;letter-spacing:0;word-spacing:0;fill:#000;fill-opacity:1;stroke:none;stroke-width:1px;stroke-linecap:butt;stroke-linejoin:miter;stroke-opacity:1"><flowRegion id="flowRegion1629"><rect id="rect1631" width="220" height="120" x="140" y="-126.299"/></flowRegion><flowPara id="flowPara1633"/></flowRoot><text style="font-style:normal;font-weight:400;font-size:12px;line-height:0%;font-family:sans-serif;letter-spacing:0;word-spacing:0;fill:#000;fill-opacity:1;stroke:none;stroke-width:1px;stroke-linecap:butt;stroke-linejoin:miter;stroke-opacity:1" id="text4349-7-3" x="863.319" y="648.967" xml:space="preserve"><tspan style="font-size:25.00000191px;line-height:1.25;font-family:sans-serif;text-align:center;text-anchor:middle;stroke-width:1px" id="tspan1285-9-6" x="863.319" y="648.967">SDA</tspan></text><rect style="color:#000;clip-rule:nonzero;display:inline;overflow:visible;visibility:visible;opacity:1;isolation:auto;mix-blend-mode:normal;color-interpolation:sRGB;color-interpolation-filters:linearRGB;solid-color:#000;solid-opacity:1;vector-effect:none;fill:#b9ffb9;fill-opacity:1;fill-rule:nonzero;stroke:#006400;stroke-width:2.8125;stroke-linecap:round;stroke-linejoin:round;stroke-miterlimit:4;stroke-dasharray:none;stroke-dashoffset:0;stroke-opacity:1;color-rendering:auto;image-rendering:auto;shape-rendering:auto;text-rendering:auto;enable-background:accumulate" id="rect4424-3-2-9-7-3-3-5-3-0" width="112.5" height="112.5" x="412.5" y="471.112" rx="0" ry="0"/><text style="font-style:normal;font-weight:400;font-size:12px;line-height:0%;font-family:sans-serif;letter-spacing:0;word-spacing:0;fill:#000;fill-opacity:1;stroke:none;stroke-width:1px;stroke-linecap:butt;stroke-linejoin:miter;stroke-opacity:1" id="text4349-26-6" x="468.591" y="520.837" xml:space="preserve"><tspan style="font-size:25.00000191px;line-height:1.25;font-family:sans-serif;text-align:center;text-anchor:middle;stroke-width:1px" id="tspan1273-8-2" x="468.591" y="520.837">I2C</tspan><tspan style="font-size:25.00000191px;line-height:1.25;font-family:sans-serif;text-align:center;text-anchor:middle;stroke-width:1px" id="tspan1287-6" x="468.591" y="552.087">Slave</tspan></text><rect style="color:#000;clip-rule:nonzero;display:inline;overflow:visible;visibility:visible;opacity:1;isolation:auto;mix-blend-mode:normal;color-interpolation:sRGB;color-interpolation-filters:linearRGB;solid-color:#000;solid-opacity:1;vector-effect:none;fill:#b9ffb9;fill-opacity:1;fill-rule:nonzero;stroke:#006400;stroke-width:2.8125;stroke-linecap:round;stroke-linejoin:round;stroke-miterlimit:4;stroke-dasharray:none;stroke-dashoffset:0;stroke-opacity:1;color-rendering:auto;image-rendering:auto;shape-rendering:auto;text-rendering:auto;enable-background:accumulate" id="rect4424-3-2-9-7-3-3-5-3-1" width="112.5" height="112.5" x="562.5" y="471.112" rx="0" ry="0"/><text style="font-style:normal;font-weight:400;font-size:12px;line-height:0%;font-family:sans-serif;letter-spacing:0;word-spacing:0;fill:#000;fill-opacity:1;stroke:none;stroke-width:1px;stroke-linecap:butt;stroke-linejoin:miter;stroke-opacity:1" id="text4349-26-8" x="618.591" y="520.837" xml:space="preserve"><tspan style="font-size:25.00000191px;line-height:1.25;font-family:sans-serif;text-align:center;text-anchor:middle;stroke-width:1px" id="tspan1273-8-7" x="618.591" y="520.837">I2C</tspan><tspan style="font-size:25.00000191px;line-height:1.25;font-family:sans-serif;text-align:center;text-anchor:middle;stroke-width:1px" id="tspan1287-9" x="618.591" y="552.087">Slave</tspan></text><path style="fill:none;fill-rule:evenodd;stroke:#000;stroke-width:1.99968743;stroke-linecap:butt;stroke-linejoin:miter;stroke-miterlimit:4;stroke-dasharray:none;stroke-opacity:1;marker-end:url(#DotM)" id="path4655-9-3-65-5-6-20" d="m 150,583.61221 v 93.75"/><path style="opacity:1;vector-effect:none;fill:none;fill-opacity:1;fill-rule:evenodd;stroke:#000;stroke-width:1.99968743;stroke-linecap:butt;stroke-linejoin:miter;stroke-miterlimit:4;stroke-dasharray:none;stroke-dashoffset:0;stroke-opacity:1;marker-end:url(#marker2713)" id="path4655-9-3-65-5-6-20-2" d="m 187.5,583.61221 v 56.25"/><path style="fill:none;fill-rule:evenodd;stroke:#000;stroke-width:1.99968743;stroke-linecap:butt;stroke-linejoin:miter;stroke-miterlimit:4;stroke-dasharray:none;stroke-opacity:1;marker-end:url(#DotM-2)" id="path4655-9-3-65-5-6-20-9" d="m 300,583.61221 v 93.75"/><path style="opacity:1;vector-effect:none;fill:none;fill-opacity:1;fill-rule:evenodd;stroke:#000;stroke-width:1.99968743;stroke-linecap:butt;stroke-linejoin:miter;stroke-miterlimit:4;stroke-dasharray:none;stroke-dashoffset:0;stroke-opacity:1;marker-end:url(#marker2713-9)" id="path4655-9-3-65-5-6-20-2-7" d="m 337.5,583.61221 v 56.25"/><path style="fill:none;fill-rule:evenodd;stroke:#000;stroke-width:1.99968743;stroke-linecap:butt;stroke-linejoin:miter;stroke-miterlimit:4;stroke-dasharray:none;stroke-opacity:1;marker-end:url(#DotM-1)" id="path4655-9-3-65-5-6-20-93" d="m 450,583.61221 v 93.75"/><path style="opacity:1;vector-effect:none;fill:none;fill-opacity:1;fill-rule:evenodd;stroke:#000;stroke-width:1.99968743;stroke-linecap:butt;stroke-linejoin:miter;stroke-miterlimit:4;stroke-dasharray:none;stroke-dashoffset:0;stroke-opacity:1;marker-end:url(#marker2713-3)" id="path4655-9-3-65-5-6-20-2-1" d="m 487.5,583.61221 v 56.25"/><path style="fill:none;fill-rule:evenodd;stroke:#000;stroke-width:1.99968743;stroke-linecap:butt;stroke-linejoin:miter;stroke-miterlimit:4;stroke-dasharray:none;stroke-opacity:1;marker-end:url(#DotM-8)" id="path4655-9-3-65-5-6-20-5" d="m 600,583.61221 v 93.75"/><path style="opacity:1;vector-effect:none;fill:none;fill-opacity:1;fill-rule:evenodd;stroke:#000;stroke-width:1.99968743;stroke-linecap:butt;stroke-linejoin:miter;stroke-miterlimit:4;stroke-dasharray:none;stroke-dashoffset:0;stroke-opacity:1;marker-end:url(#marker2713-94)" id="path4655-9-3-65-5-6-20-2-0" d="m 637.5,583.61221 v 56.25"/><path style="opacity:1;vector-effect:none;fill:none;fill-opacity:1;fill-rule:evenodd;stroke:#000;stroke-width:1.99968743;stroke-linecap:butt;stroke-linejoin:miter;stroke-miterlimit:4;stroke-dasharray:none;stroke-dashoffset:0;stroke-opacity:1;marker-start:url(#marker6165);marker-end:url(#marker6165)" id="path6135" d="m 750,471.11221 v 28.125 l 9.375,9.375 -18.74999,18.75 18.74999,18.75 -18.74999,18.75 18.74999,18.75 -9.375,9.375 v 28.125 0 0 56.25"/><path style="opacity:1;vector-effect:none;fill:none;fill-opacity:1;fill-rule:evenodd;stroke:#000;stroke-width:1.99968743;stroke-linecap:butt;stroke-linejoin:miter;stroke-miterlimit:4;stroke-dasharray:none;stroke-dashoffset:0;stroke-opacity:1;marker-start:url(#marker8861);marker-end:url(#marker6165-5)" id="path6135-4" d="m 787.49999,471.11221 v 28.125 l 9.375,9.375 -18.74999,18.75 18.74999,18.75 -18.74999,18.75 18.74999,18.75 -9.375,9.375 v 28.125 0 0 18.75001"/><path style="fill:none;fill-rule:evenodd;stroke:#000;stroke-width:1.99968719;stroke-linecap:butt;stroke-linejoin:miter;stroke-miterlimit:4;stroke-dasharray:none;stroke-opacity:1" id="path4655-9-3-65-5-6-7" d="m 712.5,471.11221 c 112.49999,0 112.49999,0 112.49999,0"/><text style="font-style:normal;font-weight:400;font-size:12px;line-height:0%;font-family:sans-serif;letter-spacing:0;word-spacing:0;fill:#000;fill-opacity:1;stroke:none;stroke-width:1px;stroke-linecap:butt;stroke-linejoin:miter;stroke-opacity:1" id="text4349-7-3-6" x="859.943" y="480.036" xml:space="preserve"><tspan style="font-size:25.00000191px;line-height:1.25;font-family:sans-serif;text-align:center;text-anchor:middle;stroke-width:1px" id="tspan1285-9-6-5" x="859.943" y="480.036">V<tspan style="font-size:64.99999762%;baseline-shift:sub" id="tspan9307">DD</tspan></tspan></text></g></svg>